<?xml version="1.0" encoding="utf-8"?>
<!-- Generator: Adobe Illustrator 22.1.0, SVG Export Plug-In . SVG Version: 6.00 Build 0)  -->
<svg version="1.1" id="hotairballoon" xmlns="http://www.w3.org/2000/svg" xmlns:xlink="http://www.w3.org/1999/xlink" x="0px"
	 y="0px" viewBox="0 0 111 177.4" style="enable-background:new 0 0 111 177.4;" xml:space="preserve">
<style type="text/css">
	.st0{fill:#7C3119;}
	.st1{opacity:0.2;enable-background:new    ;}
	.st2{fill:#EE4638;}
	.st3{fill:#FABF17;}
	.st4{fill:#FFFFFF;}
	.st5{opacity:0.2;}
	.st6{fill:#9C1F60;}
	.st7{fill:#F1B59A;}
	.st8{fill:#333333;}
	.st9{display:none;}
	.st10{display:inline;fill:#333333;}
	.st11{fill:none;stroke:#A43E23;stroke-width:0.7565;stroke-miterlimit:10;}
	.st12{fill:none;stroke:#FABF17;stroke-width:0.7565;stroke-miterlimit:10;}
	.st13{fill:#EA2725;}
	.st14{opacity:0.6;}
	.st15{fill:#EE3B2C;}
	.st16{fill:#FBC32D;}
</style>
<polygon class="st0" points="63.4,93.3 65.8,91.7 74.4,140.5 72.1,142.1 "/>
<g>
	<polygon class="st0" points="39.1,140.2 44.3,94 46.2,95.3 41.2,141.4 	"/>
	<polygon class="st1" points="39.1,140.2 44.3,94 46.2,95.3 41.2,141.4 	"/>
</g>
<g>
	<path class="st2" d="M69.7,19c10.4,0,4.5,21.2,4.5,40.7c0,26.6-11,32.3-14.4,45.7h-8.4c-3.3-13.4-6.7-19.1-6.7-45.7
		C44.8,40.2,59.4,19,69.7,19c-14.9,0-32,21.4-32,41.6c0,21.3,2.6,24.9,7.7,37c1.6,3.7,3,7.1,4.1,10.2c0.1,0.3,2.1,7.6,2.3,7.6h7.4
		c0.2,0,2.2-7.2,2.3-7.6c1.1-3.1,2.6-6.6,4.1-10.2c5.2-12,15.4-15.7,15.4-37C81.2,40.4,84.7,19,69.7,19z"/>
	<path class="st3" d="M69.7,19c-14.1,0-30.3,21.2-30.3,40.7c0,26.6,5.9,32.3,10.5,45.7h11.4C66,92,79.6,86.3,79.6,59.7
		C79.5,40.2,83.9,19,69.7,19z"/>
	<path class="st4" d="M44.8,59.7c0,26.6,3.3,32.3,6.7,45.7h8.3C63.2,92,74.2,86.3,74.2,59.7C74.2,40.2,80,19,69.7,19
		C59.4,19,44.8,40.2,44.8,59.7z"/>
	<path class="st2" d="M41.5,59.7c0,26.6,4.9,32.3,9.1,45.7h10.2C65,92,77.6,86.3,77.6,59.7c0-19.5,4.9-40.7-7.8-40.7
		C57.1,19,41.5,40.2,41.5,59.7z"/>
	<path class="st3" d="M44.8,59.7c0,26.6,3.3,32.3,6.7,45.7h8.3C63.2,92,74.2,86.3,74.2,59.7C74.2,40.2,80,19,69.7,19
		C59.4,19,44.8,40.2,44.8,59.7z"/>
	<path class="st2" d="M58.4,105.4C60.6,92,69.9,86.3,69.9,59c0-19.1,7.2-40-0.1-40S49.1,39.8,49.1,59c0,27.2,1.6,33,3.9,46.2
		L58.4,105.4z"/>
	<path class="st3" d="M56.7,105.4C57.5,92,63.3,86.3,63.3,59c0-19.1,9.1-40,6.4-40S55.7,39.8,55.7,59c0,27.2-1.8,33-1,46.2
		L56.7,105.4z"/>
</g>
<path class="st5" d="M69.7,19c-14.9,0-32,21.4-32,41.6c0,21.3,2.6,24.9,7.7,37c1.6,3.7,3,7.1,4.1,10.2c0.1,0.3,2.1,7.6,2.3,7.6
	l3.1-0.1c0.2,0-0.1-13.8,0-14.2c0.2-0.6-2.3-11.2-2.6-11.8C47.5,80.5,53.2,75,53,65c-0.1-3-0.8-4.1-0.9-8
	c-0.3-6.5,0.5-13.1,2.3-19.3C56.4,30.4,57.9,30.3,69.7,19"/>
<g>
	<rect x="48.8" y="136.3" class="st6" width="13.7" height="16.4"/>
	<path class="st7" d="M56.1,119.9c3.2,2.2,5.4,6,6.4,8.8c-0.6,3.5-3.7,5.8-7,5.8c-3,0-6.2-2-7.2-4.7
		C49.9,126.3,52.5,121.7,56.1,119.9z"/>
	<g>
		<circle class="st8" cx="52.9" cy="128.1" r="1"/>
	</g>
	<g>
		<ellipse class="st8" cx="55.7" cy="131.4" rx="1.2" ry="1.6"/>
	</g>
	<g>
		<circle class="st8" cx="58.2" cy="128.1" r="1"/>
	</g>
	<g class="st9">
		<path class="st10" d="M57.7,131.5c-0.2-0.2-0.4-0.4-0.8-0.2c0,0-0.6,0.4-1.4,0.4c-0.8,0-1.4-0.4-1.4-0.4c-0.2-0.2-0.6,0-0.8,0.2
			s0,0.6,0.2,0.8c0,0,0.8,0.4,2,0.4s1.8-0.4,2-0.4C57.7,132.1,57.9,132,57.7,131.5z"/>
	</g>
	<path class="st8" d="M66.4,141.8c0,0-1.4-5-1-9.9c0-0.6,0.2-1,0.2-1.6c0.6-7.2-0.8-15.1-10.5-13.5c-10.9,1.8-10.1,15.1-7.5,22.4
		l0,0c0.2,0.4,0.2,0.6,0.4,1s0.4,0.8,0.6,1.2c-1,2.4-1.4,5.5-1.4,8.7h2.4c0-2.2,0.4-4.5,0.8-6.2c1.4,1.6,2.7,2.4,2.7,2.4
		s-2.2-6.7,1.4-8.7c0.4-0.2,1-0.4,1.4-0.4c0.8,0,1.6,0.4,2.2,0.8c3.7,3,0,10.9,0,10.9s2-1,3.7-4.2c0.4,1.6,0.6,3.5,0.6,5.2h2.4
		c0-1.2,0-2.4-0.2-3.7c-0.2-2.2-0.2-4.7,0-6.9C65.4,141.2,66.4,141.8,66.4,141.8z M56.2,120.6c3.2,2.2,5.2,5.2,6.2,8
		c-0.6,3.5-3.7,5.8-7,5.8c-3,0-5.7-2-6.7-4.7C50.4,126.3,52.7,122.4,56.2,120.6z"/>
</g>
<rect x="33.7" y="139.3" class="st0" width="44.3" height="2.2"/>
<rect x="33.7" y="139.3" class="st1" width="22.1" height="2.2"/>
<polygon class="st0" points="72.1,169.1 39.6,169.1 35.9,139.3 75.9,139.3 "/>
<line class="st11" x1="37" y1="150.4" x2="74.7" y2="150.4"/>
<line class="st11" x1="37.8" y1="156.8" x2="73.9" y2="156.8"/>
<line class="st11" x1="38.6" y1="163.7" x2="73" y2="163.7"/>
<path class="st12" d="M34,139.5c7.8,11.9,14.6,0,14.6,0"/>
<path class="st12" d="M63.1,139.5c0,0-6.8,11.9-14.6,0"/>
<path class="st12" d="M63.1,139.5c7.8,11.9,14.6,0,14.6,0"/>
<path class="st13" d="M48.5,139.4c0,0-4.6,7.1,0,7.1S48.5,139.4,48.5,139.4z"/>
<path class="st13" d="M34.2,139.3c0,0-4.6,7.1,0,7.1S34.2,139.3,34.2,139.3z"/>
<path class="st13" d="M63.1,139.5c0,0-4.6,7.1,0,7.1S63.1,139.5,63.1,139.5z"/>
<path class="st13" d="M77.7,139.4c0,0-4.6,7.1,0,7.1C82.3,146.6,77.7,139.4,77.7,139.4z"/>
<polyline class="st1" points="76.3,139.3 35.9,139.3 39.6,169.1 55.9,169.1 55.8,139.3 35.9,139.3 "/>
<g class="st14">
	<polygon class="st15" points="32.3,18.4 45.6,60.1 25.7,50.7 39.4,68 2,66.3 37.6,78 24.8,87.2 40.5,87.5 29.1,106.4 47.7,94.7 
		41.8,130.8 57.1,97.6 67.5,124.5 66.9,95.8 84.1,110.4 74.6,89.5 96.1,93.8 78.7,80.3 114.5,72.9 78.1,70.2 98.7,52.1 72.9,61.7 
		74.4,48.5 64.5,56.5 61.1,29.5 54.5,55.9 32.3,18.4 	"/>
	<polyline class="st16" points="47.2,51.7 51,58.1 56.1,66.7 58.6,57 59.8,52.2 60.4,57 61.3,64.4 67,59.8 69.2,58.1 68.9,61.2 
		68.1,67.9 74.4,65.6 79.1,63.9 75.4,67.1 67.9,73.7 77.8,74.4 84.1,74.9 78,76.1 69,78 76.4,83.6 79.5,86.1 75.5,85.3 67.5,83.7 
		70.8,91.2 72.6,95.1 69.4,92.4 62.4,86.6 62.6,95.9 62.7,100.9 60.9,96.1 57.5,86.9 53.4,95.8 50.7,101.5 51.7,95.3 53.2,86.1 
		45.5,91 42,93.2 44.1,89.6 47.9,83.4 40.7,83.2 37.4,83.1 39.9,81.2 46.6,76.3 38.7,73.7 32.6,71.7 38.9,72 48.1,72.3 42.4,65.1 
		39.8,61.9 43.5,63.6 52.1,67.7 49.1,58.5 47.2,51.7 	"/>
</g>
</svg>
